<?xml version="1.0" encoding="utf-8"?>
<!-- Generator: Adobe Illustrator 16.0.0, SVG Export Plug-In . SVG Version: 6.00 Build 0)  -->
<!DOCTYPE svg PUBLIC "-//W3C//DTD SVG 1.1//EN" "http://www.w3.org/Graphics/SVG/1.1/DTD/svg11.dtd">
<svg version="1.1" id="Ebene_1" xmlns="http://www.w3.org/2000/svg" xmlns:xlink="http://www.w3.org/1999/xlink" x="0px" y="0px"
	 width="248.377px" height="248.375px" viewBox="0 0 248.377 248.375" enable-background="new 0 0 248.377 248.375"
	 xml:space="preserve">
<g>
	<polygon fill="#3C3C3B" points="219.94,168.166 219.942,168.166 219.942,168.164 	"/>
</g>
<rect x="40.367" y="43.987" transform="matrix(-0.7071 0.7071 -0.7071 -0.7071 224.9848 30.9931)" width="131.412" height="36.212"/>
<polygon points="155.453,43.977 166.166,54.69 166.166,33.263 "/>
<rect x="120.575" y="87.964" transform="matrix(-0.7071 -0.7071 0.7071 -0.7071 243.0005 312.7963)" width="131.414" height="36.215"/>
<rect x="124.195" y="120.574" transform="matrix(0.7071 0.7071 -0.7071 0.7071 173.3972 -46.0631)" width="36.215" height="131.413"/>
<polygon points="204.397,155.451 193.682,166.166 215.112,166.166 "/>
<polygon points="82.21,215.107 92.922,204.395 82.21,193.682 "/>
<polygon points="72.414,127.016 28.437,83.035 2.829,108.64 95.751,201.566 121.358,175.959 "/>
<polygon points="43.98,92.92 54.695,82.206 33.265,82.206 "/>
</svg>
