<?xml version="1.0" encoding="utf-8"?>
<!-- Generator: Adobe Illustrator 16.0.0, SVG Export Plug-In . SVG Version: 6.00 Build 0)  -->
<!DOCTYPE svg PUBLIC "-//W3C//DTD SVG 1.1//EN" "http://www.w3.org/Graphics/SVG/1.1/DTD/svg11.dtd">
<svg version="1.1" id="Ebene_1" xmlns="http://www.w3.org/2000/svg" xmlns:xlink="http://www.w3.org/1999/xlink" x="0px" y="0px"
	 width="1028.365px" height="348.446px" viewBox="0 0 1028.365 348.446" enable-background="new 0 0 1028.365 348.446"
	 xml:space="preserve">
<polygon points="633.692,323.112 608.551,348.446 709.313,348.446 709.313,323.112 "/>
<polygon points="633.692,222.538 709.313,222.538 709.313,197.206 608.551,197.206 "/>
<g>
	<path d="M988.172,308.551c-9.83,9.834-21.74,14.559-35.542,14.559c-13.797,0-25.898-4.725-35.729-14.559
		c-9.829-9.83-14.554-21.93-14.554-35.727c0-13.801,4.725-25.711,14.554-35.543c10.016-10.02,21.933-14.744,35.729-14.744
		c13.802,0,25.712,4.912,35.542,14.744c9.831,9.832,14.747,21.742,14.747,35.543C1002.919,286.622,998.192,298.538,988.172,308.551
		 M1005.941,219.51c-14.744-14.742-32.329-22.305-53.312-22.305c-20.984,0-38.757,7.562-53.311,22.305
		c-14.745,14.748-22.31,32.521-22.31,53.314c0,20.986,7.564,38.568,22.31,53.312c14.743,14.744,32.326,22.309,53.311,22.309
		c20.982,0,38.567-7.564,53.312-22.309c14.936-14.559,22.499-32.326,22.499-53.312
		C1028.44,252.032,1020.877,234.258,1005.941,219.51"/>
</g>
<polygon points="830.47,197.206 830.47,287.762 729.899,197.206 729.899,235.391 855.613,348.446 855.613,348.256 855.613,348.065 
	855.613,197.206 "/>
<g>
	<path d="M403.64,308.555c-9.83,9.828-21.737,14.557-35.541,14.557c-13.799,0-25.899-4.729-35.729-14.557
		c-9.831-9.834-14.555-21.934-14.555-35.73c0-13.801,4.724-25.713,14.555-35.541c10.021-10.021,21.931-14.746,35.729-14.746
		c13.804,0,25.711,4.912,35.541,14.746c9.831,9.828,14.745,21.74,14.745,35.541C418.385,286.622,413.661,298.538,403.64,308.555
		 M368.099,197.206c-20.985,0-38.755,7.562-53.31,22.309c-14.747,14.744-22.309,32.514-22.309,53.311
		c0,20.986,7.562,38.568,22.309,53.312c14.742,14.742,32.324,22.311,53.31,22.311c20.984,0,38.566-7.568,53.313-22.311
		c14.935-14.559,22.494-32.326,22.494-53.312c0-20.797-7.56-38.566-22.494-53.311C406.665,204.768,389.083,197.206,368.099,197.206"
		/>
</g>
<polygon points="558.641,197.206 558.641,287.762 458.067,197.206 458.067,235.391 583.784,348.446 583.784,348.256 
	583.784,348.065 583.784,197.206 "/>
<rect x="608.551" y="260.348" width="100.763" height="25.143"/>
<g>
	<path d="M236.065,197.206c-20.984,0-38.754,7.562-53.312,22.309c-14.744,14.744-22.306,32.514-22.306,53.311
		c0,20.986,7.562,38.568,22.306,53.312c14.745,14.742,32.327,22.311,53.312,22.311c19.394,0,35.866-6.498,49.891-19.113
		l-14.643-20.504c-9.771,9.639-21.579,14.281-35.248,14.281c-13.798,0-25.898-4.729-35.732-14.557
		c-9.827-9.834-14.554-21.934-14.554-35.73c0-13.801,4.727-25.713,14.554-35.541c10.021-10.021,21.935-14.746,35.732-14.746
		c13.679,0,25.498,4.832,35.276,14.492l14.729-20.617C272.017,203.733,255.509,197.206,236.065,197.206"/>
</g>
<g>
	<polygon points="219.94,168.166 219.942,168.166 219.942,168.164 	"/>
</g>
<rect x="40.367" y="43.987" transform="matrix(-0.7071 0.7071 -0.7071 -0.7071 224.985 30.9935)" width="131.412" height="36.212"/>
<polygon points="155.453,43.977 166.166,54.69 166.166,33.263 "/>
<rect x="120.575" y="87.964" transform="matrix(-0.7071 -0.7071 0.7071 -0.7071 243.0003 312.7967)" width="131.414" height="36.215"/>
<rect x="124.195" y="120.574" transform="matrix(0.7071 0.7071 -0.7071 0.7071 173.3972 -46.0631)" width="36.215" height="131.413"/>
<polygon points="204.397,155.451 193.682,166.166 215.112,166.166 "/>
<polygon points="82.21,215.107 92.922,204.395 82.21,193.683 "/>
<polygon points="72.414,127.016 28.437,83.035 2.829,108.641 95.751,201.566 121.358,175.959 "/>
<polygon points="43.98,92.921 54.695,82.206 33.265,82.206 "/>
</svg>
